<svg width="114" height="81" viewBox="0 0 114 81" fill="none" xmlns="http://www.w3.org/2000/svg">
<path d="M0 4.5814C0 2.60345 1.90279 1 4.25 1H29.75C32.0972 1 34 2.60345 34 4.5814V74.4186C34 76.3966 32.0972 78 29.75 78H4.25C1.90279 78 0 76.3966 0 74.4186V4.5814Z" fill="#E6524B"/>
<path d="M17.4518 35.224C15.3398 35.224 13.3984 34.7333 11.6278 33.752C9.87842 32.7707 8.48108 31.4053 7.43575 29.656C6.41175 27.8853 5.89975 25.9013 5.89975 23.704C5.89975 21.5067 6.41175 19.5333 7.43575 17.784C8.48108 16.0347 9.87842 14.6693 11.6278 13.688C13.3984 12.7067 15.3398 12.216 17.4518 12.216C19.5638 12.216 21.4944 12.7067 23.2438 13.688C25.0144 14.6693 26.4011 16.0347 27.4038 17.784C28.4278 19.5333 28.9398 21.5067 28.9398 23.704C28.9398 25.9013 28.4278 27.8853 27.4038 29.656C26.3798 31.4053 24.9931 32.7707 23.2438 33.752C21.4944 34.7333 19.5638 35.224 17.4518 35.224ZM17.4518 30.232C19.2438 30.232 20.6731 29.6347 21.7397 28.44C22.8278 27.2453 23.3718 25.6667 23.3718 23.704C23.3718 21.72 22.8278 20.1413 21.7397 18.968C20.6731 17.7733 19.2438 17.176 17.4518 17.176C15.6384 17.176 14.1878 17.7627 13.0998 18.936C12.0331 20.1093 11.4998 21.6987 11.4998 23.704C11.4998 25.688 12.0331 27.2773 13.0998 28.472C14.1878 29.6453 15.6384 30.232 17.4518 30.232Z" fill="white"/>
<path d="M48.4191 20.826C50.2011 20.826 51.6411 21.393 52.7391 22.527C53.8371 23.643 54.3861 25.209 54.3861 27.225V36H50.6061V27.738C50.6061 26.55 50.3091 25.641 49.7151 25.011C49.1211 24.363 48.3111 24.039 47.2851 24.039C46.2411 24.039 45.4131 24.363 44.8011 25.011C44.2071 25.641 43.9101 26.55 43.9101 27.738V36H40.1301V21.042H43.9101V22.905C44.4141 22.257 45.0531 21.753 45.8271 21.393C46.6191 21.015 47.4831 20.826 48.4191 20.826ZM65.2707 16.02V36H61.4907V16.02H65.2707ZM86.8253 21.042L77.5643 43.074H73.5413L76.7813 35.622L70.7873 21.042H75.0263L78.8873 31.491L82.8023 21.042H86.8253Z" fill="white"/>
<path d="M47.059 68.243C45.619 68.243 44.323 67.928 43.171 67.298C42.019 66.65 41.11 65.741 40.444 64.571C39.796 63.401 39.472 62.051 39.472 60.521C39.472 58.991 39.805 57.641 40.471 56.471C41.155 55.301 42.082 54.401 43.252 53.771C44.422 53.123 45.727 52.799 47.167 52.799C48.607 52.799 49.912 53.123 51.082 53.771C52.252 54.401 53.17 55.301 53.836 56.471C54.52 57.641 54.862 58.991 54.862 60.521C54.862 62.051 54.511 63.401 53.809 64.571C53.125 65.741 52.189 66.65 51.001 67.298C49.831 67.928 48.517 68.243 47.059 68.243ZM47.059 64.949C47.743 64.949 48.382 64.787 48.976 64.463C49.588 64.121 50.074 63.617 50.434 62.951C50.794 62.285 50.974 61.475 50.974 60.521C50.974 59.099 50.596 58.01 49.84 57.254C49.102 56.48 48.193 56.093 47.113 56.093C46.033 56.093 45.124 56.48 44.386 57.254C43.666 58.01 43.306 59.099 43.306 60.521C43.306 61.943 43.657 63.041 44.359 63.815C45.079 64.571 45.979 64.949 47.059 64.949ZM67.7868 68.243C66.3468 68.243 65.0508 67.928 63.8988 67.298C62.7468 66.65 61.8378 65.741 61.1718 64.571C60.5238 63.401 60.1998 62.051 60.1998 60.521C60.1998 58.991 60.5328 57.641 61.1988 56.471C61.8828 55.301 62.8098 54.401 63.9798 53.771C65.1498 53.123 66.4548 52.799 67.8948 52.799C69.3348 52.799 70.6398 53.123 71.8098 53.771C72.9798 54.401 73.8978 55.301 74.5638 56.471C75.2478 57.641 75.5898 58.991 75.5898 60.521C75.5898 62.051 75.2388 63.401 74.5368 64.571C73.8528 65.741 72.9168 66.65 71.7288 67.298C70.5588 67.928 69.2448 68.243 67.7868 68.243ZM67.7868 64.949C68.4708 64.949 69.1098 64.787 69.7038 64.463C70.3158 64.121 70.8018 63.617 71.1618 62.951C71.5218 62.285 71.7018 61.475 71.7018 60.521C71.7018 59.099 71.3238 58.01 70.5678 57.254C69.8298 56.48 68.9208 56.093 67.8408 56.093C66.7608 56.093 65.8518 56.48 65.1138 57.254C64.3938 58.01 64.0338 59.099 64.0338 60.521C64.0338 61.943 64.3848 63.041 65.0868 63.815C65.8068 64.571 66.7068 64.949 67.7868 64.949ZM90.7285 68L85.6525 61.628V68H81.8725V48.02H85.6525V59.387L90.6745 53.042H95.5885L89.0005 60.548L95.6425 68H90.7285ZM106.874 68.243C105.65 68.243 104.552 68.027 103.58 67.595C102.608 67.145 101.834 66.542 101.258 65.786C100.7 65.03 100.394 64.193 100.34 63.275H104.147C104.219 63.851 104.498 64.328 104.984 64.706C105.488 65.084 106.109 65.273 106.847 65.273C107.567 65.273 108.125 65.129 108.521 64.841C108.935 64.553 109.142 64.184 109.142 63.734C109.142 63.248 108.89 62.888 108.386 62.654C107.9 62.402 107.117 62.132 106.037 61.844C104.921 61.574 104.003 61.295 103.283 61.007C102.581 60.719 101.969 60.278 101.447 59.684C100.943 59.09 100.691 58.289 100.691 57.281C100.691 56.453 100.925 55.697 101.393 55.013C101.879 54.329 102.563 53.789 103.445 53.393C104.345 52.997 105.398 52.799 106.604 52.799C108.386 52.799 109.808 53.249 110.87 54.149C111.932 55.031 112.517 56.228 112.625 57.74H109.007C108.953 57.146 108.701 56.678 108.251 56.336C107.819 55.976 107.234 55.796 106.496 55.796C105.812 55.796 105.281 55.922 104.903 56.174C104.543 56.426 104.363 56.777 104.363 57.227C104.363 57.731 104.615 58.118 105.119 58.388C105.623 58.64 106.406 58.901 107.468 59.171C108.548 59.441 109.439 59.72 110.141 60.008C110.843 60.296 111.446 60.746 111.95 61.358C112.472 61.952 112.742 62.744 112.76 63.734C112.76 64.598 112.517 65.372 112.031 66.056C111.563 66.74 110.879 67.28 109.979 67.676C109.097 68.054 108.062 68.243 106.874 68.243Z" fill="white"/>
<path d="M22.4903 56.48C23.7916 56.7573 24.8369 57.408 25.6263 58.432C26.4156 59.4347 26.8103 60.5867 26.8103 61.888C26.8103 63.7653 26.1489 65.2587 24.8263 66.368C23.5249 67.456 21.7009 68 19.3543 68H8.89025V45.536H19.0023C21.2849 45.536 23.0663 46.0587 24.3463 47.104C25.6476 48.1493 26.2983 49.568 26.2983 51.36C26.2983 52.6827 25.9463 53.7813 25.2423 54.656C24.5596 55.5307 23.6423 56.1387 22.4903 56.48ZM14.3623 54.624H17.9463C18.8423 54.624 19.5249 54.432 19.9943 54.048C20.4849 53.6427 20.7303 53.056 20.7303 52.288C20.7303 51.52 20.4849 50.9333 19.9943 50.528C19.5249 50.1227 18.8423 49.92 17.9463 49.92H14.3623V54.624ZM18.3943 63.584C19.3116 63.584 20.0156 63.3813 20.5063 62.976C21.0183 62.5493 21.2743 61.9413 21.2743 61.152C21.2743 60.3627 21.0076 59.744 20.4743 59.296C19.9623 58.848 19.2476 58.624 18.3303 58.624H14.3623V63.584H18.3943Z" fill="white"/>
</svg>
