<svg width="34" height="34" viewBox="0 0 34 34" fill="none" xmlns="http://www.w3.org/2000/svg">
<path d="M10.9544 21.9807H10.956C10.9573 21.9807 10.9586 21.9805 10.9599 21.9805H29.0195C29.4641 21.9805 29.8551 21.6855 29.9772 21.258L33.9616 7.31273C34.0475 7.01208 33.9873 6.68887 33.7992 6.43933C33.6109 6.18979 33.3165 6.04297 33.0039 6.04297H8.6572L7.94514 2.83861C7.84372 2.38284 7.43957 2.05859 6.97266 2.05859H0.996094C0.445908 2.05859 0 2.5045 0 3.05469C0 3.60487 0.445908 4.05078 0.996094 4.05078H6.17371C6.29977 4.61861 9.58118 19.3852 9.77002 20.2347C8.71141 20.6949 7.96875 21.7504 7.96875 22.9766C7.96875 24.6243 9.30933 25.9648 10.957 25.9648H29.0195C29.5697 25.9648 30.0156 25.5189 30.0156 24.9688C30.0156 24.4186 29.5697 23.9727 29.0195 23.9727H10.957C10.4079 23.9727 9.96094 23.5257 9.96094 22.9766C9.96094 22.4282 10.4063 21.982 10.9544 21.9807ZM31.6833 8.03516L28.268 19.9883H11.756L9.09973 8.03516H31.6833Z" fill="white"/>
<path d="M9.96088 28.9531C9.96088 30.6008 11.3015 31.9414 12.9492 31.9414C14.5969 31.9414 15.9374 30.6008 15.9374 28.9531C15.9374 27.3054 14.5969 25.9648 12.9492 25.9648C11.3015 25.9648 9.96088 27.3054 9.96088 28.9531ZM12.9492 27.957C13.4983 27.957 13.9453 28.404 13.9453 28.9531C13.9453 29.5023 13.4983 29.9492 12.9492 29.9492C12.4 29.9492 11.9531 29.5023 11.9531 28.9531C11.9531 28.404 12.4 27.957 12.9492 27.957Z" fill="white"/>
<path d="M24.0389 28.9531C24.0389 30.6008 25.3795 31.9414 27.0272 31.9414C28.6749 31.9414 30.0154 30.6008 30.0154 28.9531C30.0154 27.3054 28.6749 25.9648 27.0272 25.9648C25.3795 25.9648 24.0389 27.3054 24.0389 28.9531ZM27.0272 27.957C27.5763 27.957 28.0233 28.404 28.0233 28.9531C28.0233 29.5023 27.5763 29.9492 27.0272 29.9492C26.478 29.9492 26.0311 29.5023 26.0311 28.9531C26.0311 28.404 26.478 27.957 27.0272 27.957Z" fill="white"/>
</svg>
